<svg xmlns="http://www.w3.org/2000/svg" viewBox="0 0 120 120" width="120" height="120">
  <defs>
    <linearGradient id="bgGrad" x1="0%" y1="0%" x2="100%" y2="100%">
      <stop offset="0%" style="stop-color:#1a365d"/>
      <stop offset="100%" style="stop-color:#2c5282"/>
    </linearGradient>
  </defs>

  <!-- Background circle -->
  <circle cx="60" cy="60" r="56" fill="url(#bgGrad)" stroke="#d1d5db" stroke-width="2"/>

  <!-- Document/News paper -->
  <rect x="28" y="28" width="44" height="54" rx="3" fill="#ffffff" stroke="#a0aec0" stroke-width="1"/>

  <!-- Document lines -->
  <rect x="34" y="35" width="24" height="3" rx="1" fill="#4a5568"/>
  <rect x="34" y="42" width="32" height="2" rx="1" fill="#cbd5e0"/>
  <rect x="34" y="48" width="28" height="2" rx="1" fill="#cbd5e0"/>
  <rect x="34" y="54" width="32" height="2" rx="1" fill="#cbd5e0"/>
  <rect x="34" y="60" width="26" height="2" rx="1" fill="#cbd5e0"/>
  <rect x="34" y="66" width="32" height="2" rx="1" fill="#cbd5e0"/>

  <!-- Magnifying glass -->
  <circle cx="78" cy="72" r="20" fill="#1a365d" fill-opacity="0.4" stroke="#4a5568" stroke-width="4"/>
  <line x1="92" y1="86" x2="104" y2="98" stroke="#4a5568" stroke-width="5" stroke-linecap="round"/>

  <!-- Chart bars inside magnifying glass -->
  <rect x="68" y="76" width="6" height="10" rx="1" fill="#48bb78"/>
  <rect x="76" y="68" width="6" height="18" rx="1" fill="#48bb78"/>
  <rect x="84" y="72" width="6" height="14" rx="1" fill="#48bb78"/>

  <!-- Swiss Flag (top right, inside circle) -->
  <rect x="82" y="18" width="24" height="24" rx="2" fill="#DA291C"/>
  <rect x="88" y="27" width="12" height="6" fill="#ffffff"/>
  <rect x="91" y="24" width="6" height="12" fill="#ffffff"/>
</svg>
